HIERARCHY
ROOT Hips
{
	OFFSET 0.00000 0.00000 0.00000
	CHANNELS 6 Xposition Yposition Zposition Zrotation Yrotation Xrotation 
	JOINT LHipJoint
	{
		OFFSET 0 0 0
		CHANNELS 3 Zrotation Yrotation Xrotation
		JOINT LeftUpLeg
		{
			OFFSET 1.42489 -1.84941 0.69647
			CHANNELS 3 Zrotation Yrotation Xrotation
			JOINT LeftLeg
			{
				OFFSET 2.44443 -6.71602 0.00000
				CHANNELS 3 Zrotation Yrotation Xrotation
				JOINT LeftFoot
				{
					OFFSET 2.62838 -7.22137 0.00000
					CHANNELS 3 Zrotation Yrotation Xrotation
					JOINT LeftToeBase
					{
						OFFSET 0.24036 -0.66037 2.29953
						CHANNELS 3 Zrotation Yrotation Xrotation
						End Site
						{
							OFFSET 0.00000 -0.00000 1.19837
						}
					}
				}
			}
		}
	}
	JOINT RHipJoint
	{
		OFFSET 0 0 0
		CHANNELS 3 Zrotation Yrotation Xrotation
		JOINT RightUpLeg
		{
			OFFSET -1.37055 -1.84941 0.69647
			CHANNELS 3 Zrotation Yrotation Xrotation
			JOINT RightLeg
			{
				OFFSET -2.54834 -7.00152 0.00000
				CHANNELS 3 Zrotation Yrotation Xrotation
				JOINT RightFoot
				{
					OFFSET -2.65692 -7.29983 0.00000
					CHANNELS 3 Zrotation Yrotation Xrotation
					JOINT RightToeBase
					{
						OFFSET -0.18839 -0.51760 2.29390
						CHANNELS 3 Zrotation Yrotation Xrotation
						End Site
						{
							OFFSET -0.00000 -0.00000 1.18261
						}
					}
				}
			}
		}
	}
	JOINT LowerBack
	{
		OFFSET 0 0 0
		CHANNELS 3 Zrotation Yrotation Xrotation
		JOINT Spine
		{
			OFFSET 0.05220 2.15489 0.05011
			CHANNELS 3 Zrotation Yrotation Xrotation
			JOINT Spine1
			{
				OFFSET -0.07653 2.14219 -0.05668
				CHANNELS 3 Zrotation Yrotation Xrotation
				JOINT Neck
				{
					OFFSET 0 0 0
					CHANNELS 3 Zrotation Yrotation Xrotation
					JOINT Neck1
					{
						OFFSET 0.01370 1.58638 0.01447
						CHANNELS 3 Zrotation Yrotation Xrotation
						JOINT Head
						{
							OFFSET 0.23548 1.54190 -0.21747
							CHANNELS 3 Zrotation Yrotation Xrotation
							End Site
							{
								OFFSET 0.07132 1.59823 -0.08163
							}
						}
					}
				}
				JOINT LeftShoulder
				{
					OFFSET 0 0 0
					CHANNELS 3 Zrotation Yrotation Xrotation
					JOINT LeftArm
					{
						OFFSET 3.47056 1.45357 -0.58896
						CHANNELS 3 Zrotation Yrotation Xrotation
						JOINT LeftForeArm
						{
							OFFSET 5.19069 -0.00000 0.00000
							CHANNELS 3 Zrotation Yrotation Xrotation
							JOINT LeftHand
							{
								OFFSET 3.30016 -0.00000 0.00000
								CHANNELS 3 Zrotation Yrotation Xrotation
								JOINT LeftFingerBase
								{
									OFFSET 0 0 0
									CHANNELS 3 Zrotation Yrotation Xrotation
									JOINT LeftHandIndex1
									{
										OFFSET 0.70770 -0.00000 0.00000
										CHANNELS 3 Zrotation Yrotation Xrotation
										End Site
										{
											OFFSET 0.57056 -0.00000 0.00000
										}
									}
								}
								JOINT LThumb
								{
									OFFSET 0 0 0
									CHANNELS 3 Zrotation Yrotation Xrotation
									End Site
									{
										OFFSET 0.57928 -0.00000 0.57928
									}
								}
							}
						}
					}
				}
				JOINT RightShoulder
				{
					OFFSET 0 0 0
					CHANNELS 3 Zrotation Yrotation Xrotation
					JOINT RightArm
					{
						OFFSET -2.89018 2.03305 -0.26731
						CHANNELS 3 Zrotation Yrotation Xrotation
						JOINT RightForeArm
						{
							OFFSET -5.23924 -0.00000 0.00000
							CHANNELS 3 Zrotation Yrotation Xrotation
							JOINT RightHand
							{
								OFFSET -3.32953 -0.00000 0.00000
								CHANNELS 3 Zrotation Yrotation Xrotation
								JOINT RightFingerBase
								{
									OFFSET 0 0 0
									CHANNELS 3 Zrotation Yrotation Xrotation
									JOINT RightHandIndex1
									{
										OFFSET -0.60741 -0.00000 0.00000
										CHANNELS 3 Zrotation Yrotation Xrotation
										End Site
										{
											OFFSET -0.48971 -0.00000 0.00000
										}
									}
								}
								JOINT RThumb
								{
									OFFSET 0 0 0
									CHANNELS 3 Zrotation Yrotation Xrotation
									End Site
									{
										OFFSET -0.49719 -0.00000 0.49719
									}
								}
							}
						}
					}
				}
			}
		}
	}
}
MOTION
Frames: 5
Frame Time: 0.0148148
0.00 0.00 0.00 -160.7730 -24.5157 181.8990 0.0000 0.0000 0.0000 -10.0974 -1.2898 -51.2766 9.6144 17.1872 58.1917 -0.0081 5.6205 3.6921 0.6891 -5.3070 -14.7862 0.0000 0.0000 0.0000 25.7363 -10.3312 5.5171 -16.9606 -19.7771 81.0815 -0.3305 -10.6291 -19.3758 -3.7013 11.7519 -34.8598 17.2435 5.2522 0.9881 1.6012 7.2782 -3.7897 -7.9552 3.0151 -2.7240 -6.1184 -4.7081 -11.6500 13.5617 -6.0509 -10.8337 4.9391 -3.3590 -0.6641 -0.0000 -0.0000 0.0000 19.7154 -24.3735 19.0986 117.7090 -56.8901 -83.7462 -0.0000 0.0000 -47.4398 -33.3033 3.1530 -2.0695 -7.1250 0.0000 -0.0000 -42.4271 28.9546 23.1315 -0.0000 -0.0000 0.0000 30.2614 59.2379 19.1334 -40.7196 48.4905 -18.9763 0.0000 0.0000 1.0833 10.3899 -16.0322 -2.8989 7.1250 -0.0000 -0.0000 33.9096 -43.2001 1.7230
0.00 0.00 0.00 -160.4710 -26.1883 182.3680 0.0000 0.0000 0.0000 -12.9061 -0.5884 -44.8944 7.0842 15.4024 49.1921 -0.0830 5.2034 -2.9821 0.9478 -6.2001 -17.3663 0.0000 0.0000 0.0000 22.5850 -7.9409 3.4557 -20.9270 -19.9794 92.7114 -0.2160 -10.6070 -18.0271 -3.6460 11.6738 -34.5877 16.5057 3.6143 -0.7176 2.7725 4.7065 -4.5978 -6.2714 1.6154 -3.4311 -5.3812 -3.7216 -12.2402 12.8497 -4.9008 -11.2135 4.6514 -2.8417 -0.8472 -0.0000 0.0000 0.0000 27.0396 -27.3431 8.8531 102.1327 -59.4364 -70.4873 -0.0000 0.0000 -48.2992 -31.9095 3.7936 -2.3591 -7.1250 0.0000 -0.0000 -42.1169 29.8515 21.4205 -0.0000 0.0000 0.0000 45.6676 52.3409 32.1854 -55.3101 54.9249 -30.4696 0.0000 0.0000 2.2427 15.6056 -15.2707 -4.2074 7.1250 -0.0000 -0.0000 37.5675 -41.9451 3.3747
0.00 0.00 0.00 -161.5720 -29.0495 184.0010 0.0000 0.0000 0.0000 -16.0492 -1.5584 -39.6629 5.0531 13.4433 41.0515 0.0104 5.2634 -7.8317 0.6795 -5.2706 -14.6821 0.0000 0.0000 0.0000 18.0535 -6.1983 -0.8888 -24.3190 -19.5468 102.7203 -0.3213 -8.7322 -17.2324 -3.6640 11.6993 -34.6764 14.2562 1.5734 -1.5402 3.7386 1.8306 -5.3930 -4.0117 0.1475 -4.5244 -5.3553 -2.9125 -12.4029 12.9028 -3.9737 -14.2302 4.7775 -2.6170 -1.8023 -0.0000 -0.0000 0.0000 33.4452 -30.3969 -1.0130 80.3302 -59.6437 -51.6357 -0.0000 0.0000 -46.9572 -30.2469 4.1424 -2.4119 -7.1250 0.0000 -0.0000 -41.5071 30.5065 19.8752 -0.0000 -0.0000 0.0000 54.6574 42.8403 38.0744 -76.5706 59.3075 -48.3968 0.0000 0.0000 3.9946 20.5209 -14.3295 -5.2927 7.1250 -0.0000 -0.0000 40.6361 -40.5650 5.5350
0.00 0.00 0.00 -163.7700 -32.6099 186.3250 0.0000 0.0000 0.0000 -19.2394 -3.2675 -35.3174 3.4125 11.3347 33.4171 0.0674 4.8931 -8.9174 0.2549 -3.2484 -8.9710 0.0000 0.0000 0.0000 12.4516 -5.2744 -7.2463 -26.8176 -18.8470 110.3088 -0.5984 -4.7150 -17.0905 -3.7568 11.8295 -35.1315 11.3483 -0.6289 -1.0613 4.5641 -0.9989 -5.9577 -1.4613 -1.1886 -5.7810 -6.0624 -2.3106 -12.5826 13.2929 -3.4452 -19.1463 5.2027 -2.7371 -3.2837 -0.0000 -0.0000 0.0000 38.8734 -33.6766 -11.7727 58.2908 -55.8370 -32.9229 -0.0000 0.0000 -41.3164 -24.5849 2.4562 -1.1233 -7.1250 0.0000 -0.0000 -37.8664 29.9801 17.6539 -0.0000 -0.0000 0.0000 60.2793 32.0965 39.2973 -100.7901 59.5555 -69.3305 0.0000 0.0000 5.4769 24.5887 -12.9734 -5.8654 7.1250 -0.0000 -0.0000 42.6199 -38.9132 8.2801
0.00 0.00 0.00 -166.3550 -36.2402 188.9620 0.0000 0.0000 0.0000 -22.2694 -3.9485 -32.1411 2.1722 9.2159 26.4731 0.0599 3.4794 -7.1791 0.0704 -1.7116 -4.7094 0.0000 0.0000 0.0000 7.4172 -4.7209 -15.2901 -28.2539 -18.2812 114.8183 -0.8477 0.0035 -17.4046 -3.8484 11.9559 -35.5762 8.8296 -2.6980 0.2840 5.3046 -3.5688 -6.1737 0.9190 -2.3281 -6.8401 -7.0718 -1.8304 -13.0229 13.5672 -3.4227 -24.9122 5.7455 -3.1959 -5.0106 0.0000 -0.0000 0.0000 43.9662 -37.0069 -24.5037 41.0969 -48.7065 -19.2594 -0.0000 0.0000 -30.6166 -11.8677 -3.1610 0.6639 -7.1250 0.0000 -0.0000 -28.2315 26.2241 14.5990 0.0000 -0.0000 0.0000 65.1899 21.3532 37.9149 -120.1151 56.2792 -85.7547 0.0000 0.0000 6.2416 28.3406 -11.6128 -6.1964 7.1250 -0.0000 -0.0000 44.1351 -37.2312 11.3607
